<?xml version="1.0" encoding="utf-8"?>
<!-- Generator: Adobe Illustrator 16.0.0, SVG Export Plug-In . SVG Version: 6.00 Build 0)  -->
<!DOCTYPE svg PUBLIC "-//W3C//DTD SVG 1.1//EN" "http://www.w3.org/Graphics/SVG/1.1/DTD/svg11.dtd">
<svg version="1.1" id="Layer_1" xmlns="http://www.w3.org/2000/svg" xmlns:xlink="http://www.w3.org/1999/xlink" x="0px" y="0px"
	 width="24.71px" height="23.613px" viewBox="0 0 24.71 23.613" enable-background="new 0 0 24.71 23.613" xml:space="preserve">
<path fill="inherit" d="M24.71,14.476v9.138h-5.297V15.09c0-2.142-0.764-3.604-2.684-3.604c-1.462,0-2.333,0.986-2.716,1.939
	c-0.141,0.339-0.176,0.811-0.176,1.29v8.898H8.539c0,0,0.071-14.439,0-15.933h5.299v2.258c-0.01,0.018-0.025,0.034-0.035,0.052
	h0.035V9.938c0.704-1.083,1.96-2.633,4.774-2.633C22.098,7.306,24.71,9.584,24.71,14.476L24.71,14.476z M2.998,0
	C1.185,0,0,1.19,0,2.753c0,1.529,1.15,2.752,2.928,2.752h0.033c1.849,0,2.998-1.223,2.998-2.752C5.924,1.19,4.81,0,2.998,0L2.998,0z
	 M0.314,23.613H5.61V7.68H0.314V23.613z M0.314,23.613"/>
</svg>
