<?xml version="1.0" encoding="utf-8"?>
<!-- Generator: Adobe Illustrator 15.1.0, SVG Export Plug-In . SVG Version: 6.00 Build 0)  -->
<!DOCTYPE svg PUBLIC "-//W3C//DTD SVG 1.1//EN" "http://www.w3.org/Graphics/SVG/1.1/DTD/svg11.dtd">
<svg version="1.1" id="Layer_1" xmlns="http://www.w3.org/2000/svg" xmlns:xlink="http://www.w3.org/1999/xlink" x="0px" y="0px"
	 width="25.792px" height="20.497px" viewBox="0 0 25.792 20.497" enable-background="new 0 0 25.792 20.497" xml:space="preserve">
<g>
	<g>
		<path fill-rule="evenodd" clip-rule="evenodd" fill="inherit" d="M9.494,13.24c0,0.946,1.068,1.488,1.832,0.95l4.244-2.993
			c0.656-0.461,0.655-1.437,0-1.899l-4.244-2.992c-0.769-0.542-1.832,0.01-1.832,0.95v1.831H1.162C0.521,9.086,0,9.606,0,10.248
			s0.521,1.162,1.162,1.162h8.332V13.24z M24.007,0.028H9.854c-0.75,0-1.358,0.602-1.358,1.344c0,0.743,0.608,1.345,1.358,1.345
			h13.249v15.092H9.854c-0.75,0-1.358,0.602-1.358,1.344s0.608,1.345,1.358,1.345h14.204c1.309,0,1.733-2.836,1.733-2.282V1.392
			C25.792,0.416,24.655,0.111,24.007,0.028z M24,0.027C23.533-0.031,23.334,0.024,24,0.027L24,0.027z M24,0.027
			c0.002,0,0.004,0,0.007,0.001h0.052C24.034,0.028,24.021,0.028,24,0.027z"/>
	</g>
</g>
</svg>
