<?xml version="1.0" encoding="utf-8"?>
<!-- Generator: Adobe Illustrator 16.0.0, SVG Export Plug-In . SVG Version: 6.00 Build 0)  -->
<!DOCTYPE svg PUBLIC "-//W3C//DTD SVG 1.1//EN" "http://www.w3.org/Graphics/SVG/1.1/DTD/svg11.dtd">
<svg version="1.1" id="Layer_1" xmlns="http://www.w3.org/2000/svg" xmlns:xlink="http://www.w3.org/1999/xlink" x="0px" y="0px"
	 width="841.889px" height="595.281px" viewBox="0 0 841.889 595.281" enable-background="new 0 0 841.889 595.281"
	 xml:space="preserve">
<path d="M520.883,461.067l-198.426-95.404L140.58,69.493c-5.067-8.251,3.75-18.021,12.477-13.825l169.4,81.459L520.883,461.067z" fill="inherit"/>
<path d="M308.093,549.201l-179.11-86.129c-3.471-1.67-5.678-5.181-5.678-9.031V56.796c0-7.148,7.468-11.845,13.911-8.745
	l185.241,89.076V540.17C322.457,547.552,314.745,552.4,308.093,549.201z" fill="inherit"/>
<g>
	<polygon points="391.571,251.873 322.457,365.663 519.221,460.268 	" fill="inherit"/>
	<path d="M706.088,129.977L529.847,45.226c-5.859-2.816-12.9-0.728-16.274,4.828L392.971,248.262l0.438,0.628L521.794,458.62
		l193.499-317.055C719.189,135.185,712.825,133.217,706.088,129.977z" fill="inherit"/>
</g>
<g>
	<path d="M718.584,142.933l-195.915,319.45l181.552,86.82c6.652,3.199,14.362-1.648,14.363-9.032v-395.1
		C718.584,142.933,718.643,144.34,718.584,142.933z" fill="inherit"/>
	<path d="M715.625,137.585l0.856,0.519c-1.235-1.866-2.96-3.411-5.057-4.419L537.613,50.102c-8.405-4.041-18.143,2.104-18.11,11.432
		l1.547,397.086L715.625,137.585z" fill="inherit"/>
</g>
</svg>
