<?xml version="1.0" encoding="utf-8"?>
<svg xmlns="http://www.w3.org/2000/svg"
	xmlns:xlink="http://www.w3.org/1999/xlink"
	width="10px" height="16px" viewBox="0 0 10 16">
<path fillRule="evenodd" d="M 9.82 8.5C 9.82 8.5 2.1 15.79 2.1 15.79 1.85 16.05 1.03 16.19 0.62 15.68 0.27 15.24 0.7 14.6 0.96 14.34 0.96 14.34 7.82 7.99 7.82 7.99 7.82 7.99 1.29 1.58 1.29 1.58 1.04 1.32 0.59 0.73 0.96 0.24 1.18-0.05 1.85-0.07 2.1 0.19 2.1 0.19 9.82 7.48 9.82 7.48 9.95 7.62 10.01 7.81 10 7.99 10.01 8.17 9.95 8.36 9.82 8.5Z" fill="inherit"/></svg>