<?xml version="1.0" encoding="utf-8"?>
<!-- Generator: Adobe Illustrator 16.0.0, SVG Export Plug-In . SVG Version: 6.00 Build 0)  -->
<!DOCTYPE svg PUBLIC "-//W3C//DTD SVG 1.1//EN" "http://www.w3.org/Graphics/SVG/1.1/DTD/svg11.dtd">
<svg version="1.1" id="Objects" xmlns="http://www.w3.org/2000/svg" xmlns:xlink="http://www.w3.org/1999/xlink" x="0px" y="0px"
	 width="14.078px" height="14.108px" viewBox="4.962 4.949 14.078 14.108" enable-background="new 4.962 4.949 14.078 14.108"
	 xml:space="preserve">
<path fill="inherit" d="M11.137,17.141c0,0-1.181,1.916-1.281,1.916c-0.002,0-0.004-0.002-0.005-0.004
	c-0.116-0.312-1.282-2.89-1.282-2.89c-0.215-0.519-0.176-0.959,0.194-0.959c0.081,0,0.178,0.021,0.292,0.067l0.905,0.47
	c0.15,0.104,0.315,0.192,0.497,0.264l0.046,0.019l0.086,0.043C11.287,16.436,11.51,16.568,11.137,17.141z M19,5.609l-2.799,10.266
	c-0.158,0.579-0.291,1.053-0.293,1.053c-0.003-0.003-0.006-0.013-0.006-0.015c0-0.004-0.457-0.19-1.015-0.418l-1.837-0.746
	c-0.559-0.226-1.473-0.59-2.034-0.806l-0.093-0.039l-0.344-0.178c-0.34-0.26-0.37-0.688-0.027-1.052l5.684-6.071
	c0.229-0.244,0.314-0.369,0.266-0.369c-0.039,0-0.166,0.081-0.377,0.246l-7.19,5.66c-0.313,0.244-0.791,0.379-1.239,0.379
	c-0.229,0-0.452-0.035-0.642-0.108l-1.656-0.654c-0.56-0.221-0.581-0.63-0.048-0.91l12.969-6.783
	c0.148-0.078,0.281-0.115,0.391-0.115C18.986,4.948,19.112,5.191,19,5.609z"/>
</svg>
