<?xml version="1.0" encoding="utf-8"?>
<!-- Generator: Adobe Illustrator 16.0.0, SVG Export Plug-In . SVG Version: 6.00 Build 0)  -->
<!DOCTYPE svg PUBLIC "-//W3C//DTD SVG 1.1//EN" "http://www.w3.org/Graphics/SVG/1.1/DTD/svg11.dtd">
<svg version="1.1" id="Layer_1" xmlns="http://www.w3.org/2000/svg" xmlns:xlink="http://www.w3.org/1999/xlink" x="0px" y="0px"
	 width="25.027px" height="20.34px" viewBox="0 0 25.027 20.34" enable-background="new 0 0 25.027 20.34" xml:space="preserve">
<path fill="inherit" d="M25.027,2.408c-0.92,0.408-1.911,0.685-2.949,0.808c1.06-0.636,1.874-1.642,2.259-2.84
	c-0.993,0.588-2.092,1.015-3.261,1.246C20.14,0.623,18.804,0,17.327,0c-2.836,0-5.134,2.3-5.134,5.134
	c0,0.402,0.044,0.796,0.132,1.172C8.059,6.091,4.274,4.047,1.743,0.938C1.3,1.699,1.047,2.58,1.047,3.521
	c0,1.783,0.906,3.354,2.283,4.275C2.489,7.769,1.698,7.537,1.004,7.152c0,0.022,0,0.042,0,0.065c0,2.487,1.771,4.563,4.119,5.034
	c-0.43,0.118-0.884,0.181-1.352,0.181c-0.331,0-0.653-0.032-0.967-0.092c0.654,2.04,2.55,3.524,4.798,3.565
	c-1.758,1.379-3.972,2.198-6.378,2.198c-0.415,0-0.825-0.023-1.225-0.07c2.271,1.457,4.97,2.307,7.87,2.307
	c9.444,0,14.61-7.826,14.61-14.61c0-0.223-0.006-0.443-0.015-0.664C23.47,4.342,24.339,3.437,25.027,2.408L25.027,2.408z
	 M25.027,2.408"/>
</svg>
