<?xml version="1.0" encoding="UTF-8"?><!DOCTYPE svg PUBLIC "-//W3C//DTD SVG 1.1//EN" "http://www.w3.org/Graphics/SVG/1.1/DTD/svg11.dtd"><svg xmlns="http://www.w3.org/2000/svg"><symbol id="dropdown" viewBox="0 0 8 8.699"><path fill-rule="evenodd" clip-rule="evenodd" fill="inherit" d="M3.821 8.699L8 0H0l3.821 8.699"/></symbol><symbol id="facebook" viewBox="0 0 11.481 24.907"><path fill="inherit" d="M11.02 12.43H7.614v12.477h-5.16V12.43H0V8.044h2.454V5.207C2.454 3.178 3.417 0 7.661 0l3.821.017v4.256H8.708c-.455 0-1.095.228-1.095 1.195V8.05h3.858l-.451 4.38zm0 0"/></symbol><symbol id="hamburger" viewBox="0 0 22 18"><path fill="inherit" fill-rule="evenodd" clip-rule="evenodd" d="M0 0v2h22V0H0zm0 10h22V8H0v2zm0 8h22v-2H0v2z"/></symbol><symbol id="linkedin" viewBox="0 0 24.71 23.613"><path fill="inherit" d="M24.71 14.476v9.138h-5.297V15.09c0-2.142-.764-3.604-2.684-3.604-1.462 0-2.333.986-2.716 1.939-.141.339-.176.811-.176 1.29v8.898H8.539s.071-14.439 0-15.933h5.299v2.258c-.01.018-.025.034-.035.052h.035v-.052c.704-1.083 1.96-2.633 4.774-2.633 3.486.001 6.098 2.279 6.098 7.171zM2.998 0C1.185 0 0 1.19 0 2.753c0 1.529 1.15 2.752 2.928 2.752h.033c1.849 0 2.998-1.223 2.998-2.752C5.924 1.19 4.81 0 2.998 0zM.314 23.613H5.61V7.68H.314v15.933zm0 0"/></symbol><symbol id="login" viewBox="0 0 25.792 20.497"><path fill-rule="evenodd" clip-rule="evenodd" fill="inherit" d="M9.494 13.24c0 .946 1.068 1.488 1.832.95l4.244-2.993a1.163 1.163 0 0 0 0-1.899l-4.244-2.992a1.163 1.163 0 0 0-1.832.95v1.831H1.162a1.16 1.16 0 1 0 0 2.323h8.332v1.83zM24.007.028H9.854c-.75 0-1.358.602-1.358 1.344 0 .743.608 1.345 1.358 1.345h13.249v15.092H9.854c-.75 0-1.358.602-1.358 1.344s.608 1.345 1.358 1.345h14.204c1.309 0 1.733-2.836 1.733-2.282V1.392C25.792.416 24.655.111 24.007.028zM24 .027c-.467-.058-.666-.003 0 0zm0 0a.02.02 0 0 1 .007.001h.052L24 .027z"/></symbol><symbol id="medium" viewBox="0 0 841.889 595.281"><path d="M520.883 461.067l-198.426-95.404L140.58 69.493c-5.067-8.251 3.75-18.021 12.477-13.825l169.4 81.459 198.426 323.94z" fill="inherit"/><path d="M308.093 549.201l-179.11-86.129a10.023 10.023 0 0 1-5.678-9.031V56.796c0-7.148 7.468-11.845 13.911-8.745l185.241 89.076V540.17c0 7.382-7.712 12.23-14.364 9.031z" fill="inherit"/><g fill="inherit"><path d="M391.571 251.873l-69.114 113.79 196.764 94.605zM706.088 129.977L529.847 45.226a12.636 12.636 0 0 0-16.274 4.828L392.971 248.262l.438.628 128.385 209.73 193.499-317.055c3.896-6.38-2.468-8.348-9.205-11.588z"/></g><g fill="inherit"><path d="M718.584 142.933l-195.915 319.45 181.552 86.82c6.652 3.199 14.362-1.648 14.363-9.032v-395.1c0-2.138.059-.731 0-2.138zM715.625 137.585l.856.519a12.617 12.617 0 0 0-5.057-4.419L537.613 50.102c-8.405-4.041-18.143 2.104-18.11 11.432l1.547 397.086 194.575-321.035z"/></g></symbol><symbol id="reddit" viewBox="0 0 97.75 97.75"><g fill="inherit"><path d="M25.098 43.863a5.574 5.574 0 0 0-3.432-1.207c-3.07 0-5.566 2.5-5.566 5.572 0 1.78.859 3.422 2.254 4.455 1.158-3.314 3.507-6.324 6.744-8.82zM72.748 30.117c2.293 0 4.158-1.867 4.158-4.162s-1.865-4.16-4.158-4.16c-2.295 0-4.164 1.865-4.164 4.16s1.869 4.162 4.164 4.162z"/><path d="M48.875 0C21.883 0 0 21.883 0 48.875S21.883 97.75 48.875 97.75 97.75 75.867 97.75 48.875 75.867 0 48.875 0zm30.854 55.033c.131.77.215 1.549.215 2.344 0 11.439-14.002 20.744-31.214 20.744-17.211 0-31.211-9.305-31.211-20.744 0-.844.098-1.67.246-2.486a7.733 7.733 0 0 1-3.832-6.662c0-4.268 3.469-7.737 7.734-7.737 1.949 0 3.805.775 5.229 2.088 5.506-3.59 12.998-5.828 21.268-5.928l4.815-15.229a1.084 1.084 0 0 1 1.283-.729l12.604 2.967c.922-2.354 3.204-4.031 5.883-4.031a6.334 6.334 0 0 1 6.326 6.326c0 3.488-2.839 6.328-6.326 6.328a6.336 6.336 0 0 1-6.328-6.328c0-.059.015-.111.017-.17l-11.693-2.754-4.32 13.658c7.908.283 15.051 2.508 20.326 6 1.434-1.385 3.309-2.199 5.332-2.199 4.266 0 7.738 3.471 7.738 7.738a7.683 7.683 0 0 1-4.092 6.804z"/><path d="M33.664 53.539c0-2.539 2.066-4.605 4.605-4.605s4.604 2.066 4.604 4.605-2.064 4.604-4.604 4.604-4.605-2.065-4.605-4.604zm26.383 13.652c-2.32 2.322-5.963 3.449-11.135 3.449-.012 0-.023-.009-.037-.009s-.025.009-.039.009c-5.172 0-8.814-1.127-11.135-3.449a1.084 1.084 0 0 1 1.533-1.531c1.893 1.895 5.033 2.814 9.602 2.814.014 0 .025.008.039.008s.025-.008.037-.008c4.57 0 7.711-.92 9.604-2.814a1.082 1.082 0 1 1 1.531 1.531zm-.549-9.048c-2.537 0-4.604-2.063-4.604-4.604s2.065-4.605 4.604-4.605 4.604 2.066 4.604 4.605-2.065 4.604-4.604 4.604zM76.08 42.656a5.543 5.543 0 0 0-3.57 1.313c3.217 2.516 5.539 5.546 6.66 8.878a5.524 5.524 0 0 0 2.48-4.619 5.576 5.576 0 0 0-5.57-5.572z"/></g></symbol><symbol id="right-arrow" viewBox="0 0 10 16"><path d="M9.82 8.5L2.1 15.79c-.25.26-1.07.4-1.48-.11-.35-.44.08-1.08.34-1.34l6.86-6.35-6.53-6.41C1.04 1.32.59.73.96.24c.22-.29.89-.31 1.14-.05l7.72 7.29c.13.14.19.33.18.51.01.18-.05.37-.18.51z" fill="inherit"/></symbol><symbol id="telegram" viewBox="4.962 4.949 14.078 14.108"><path fill="inherit" d="M11.137 17.141s-1.181 1.916-1.281 1.916c-.002 0-.004-.002-.005-.004-.116-.312-1.282-2.89-1.282-2.89-.215-.519-.176-.959.194-.959.081 0 .178.021.292.067l.905.47c.15.104.315.192.497.264l.046.019.086.043c.698.369.921.501.548 1.074zM19 5.609l-2.799 10.266a67.22 67.22 0 0 1-.293 1.053.036.036 0 0 1-.006-.015c0-.004-.457-.19-1.015-.418l-1.837-.746c-.559-.226-1.473-.59-2.034-.806l-.093-.039-.344-.178c-.34-.26-.37-.688-.027-1.052l5.684-6.071c.229-.244.314-.369.266-.369-.039 0-.166.081-.377.246l-7.19 5.66c-.313.244-.791.379-1.239.379-.229 0-.452-.035-.642-.108l-1.656-.654c-.56-.221-.581-.63-.048-.91l12.969-6.783a.866.866 0 0 1 .391-.115c.276-.001.402.242.29.66z"/></symbol><symbol id="twitter" viewBox="0 0 25.027 20.34"><path fill="inherit" d="M25.027 2.408a10.24 10.24 0 0 1-2.949.808 5.163 5.163 0 0 0 2.259-2.84 10.324 10.324 0 0 1-3.261 1.246 5.135 5.135 0 0 0-8.883 3.512c0 .402.044.796.132 1.172A14.572 14.572 0 0 1 1.743.938a5.114 5.114 0 0 0-.696 2.583c0 1.783.906 3.354 2.283 4.275a5.124 5.124 0 0 1-2.326-.644v.065a5.138 5.138 0 0 0 4.119 5.034 5.106 5.106 0 0 1-2.319.089 5.14 5.14 0 0 0 4.798 3.565 10.295 10.295 0 0 1-6.378 2.198c-.415 0-.825-.023-1.225-.07a14.525 14.525 0 0 0 7.87 2.307c9.444 0 14.61-7.826 14.61-14.61 0-.223-.006-.443-.015-.664a10.397 10.397 0 0 0 2.563-2.658zm0 0"/></symbol><symbol id="youtube" viewBox="0 0 461.001 461.001"><path d="M365.257 67.393H95.744C42.866 67.393 0 110.259 0 163.137v134.728c0 52.878 42.866 95.744 95.744 95.744h269.513c52.878 0 95.744-42.866 95.744-95.744V163.137c0-52.878-42.866-95.744-95.744-95.744zm-64.751 169.663l-126.06 60.123c-3.359 1.602-7.239-.847-7.239-4.568V168.607c0-3.774 3.982-6.22 7.348-4.514l126.06 63.881c3.748 1.899 3.683 7.274-.109 9.082z" fill="inherit"/></symbol></svg>